<?xml version="1.0" encoding="UTF-8"?>
<svg id="Livello_1" xmlns="http://www.w3.org/2000/svg" version="1.1" viewBox="0 0 133.8 145.9">
  <!-- Generator: Adobe Illustrator 29.1.0, SVG Export Plug-In . SVG Version: 2.1.0 Build 142)  -->
  <defs>
    <style>
      .st0 {
        fill: #ffed00;
      }

      .st1 {
        fill: #ed6b06;
      }
    </style>
  </defs>
  <path class="st1" d="M40.5,26.9c-5.2-1.9-10.8-2.2-16.2-.8-7,1.9-12.8,6.3-16.4,12.6-2.4,4.2-3.6,8.9-3.6,13.4,0,7.8,3.4,15.4,9.6,20.6-2.3,2-4.3,4.4-6,7.4-2.4,4.2-3.6,8.9-3.6,13.5,0,9.3,4.8,18.4,13.4,23.4,7.1,4.1,15.4,4.6,22.7,1.9,2.2,12.7,13.2,22.4,26.5,22.4s24.3-9.7,26.5-22.4c5.2,1.9,10.8,2.2,16.2.8,6.9-1.9,12.7-6.3,16.3-12.6,2.4-4.2,3.6-8.8,3.6-13.4s-.3-4.7-.9-7c-1.5-5.5-4.6-10.2-8.9-13.7,6.3-5.2,9.7-12.9,9.7-20.8s-1.2-9.2-3.6-13.4c-3.6-6.3-9.4-10.7-16.4-12.6-5.4-1.4-11-1.1-16.1.8-2.2-12.7-13.2-22.4-26.5-22.4s-24.3,9.7-26.5,22.4"/>
  <path class="st0" d="M46.4,72.9c0,11.5,9.2,20.7,20.7,20.7s20.6-9.3,20.6-20.7-9.2-20.7-20.6-20.7-20.7,9.3-20.7,20.7M46.4,114.3c0-3.6.6-6.5,2.6-10-5.8,9.7-18.2,13-28,7.3-9.9-5.7-13.3-18.4-7.6-28.3,3.5-6,8.4-9.6,15.8-10.5-3.3-.3-5.6-1.2-8.2-2.6-9.9-5.7-13.3-18.4-7.6-28.3,5.7-9.9,18.3-13.3,28.2-7.6,3,1.7,5.1,3.7,7.2,7-1.8-3.5-2.4-6.2-2.4-9.8,0-11.4,9.2-20.7,20.7-20.7s20.6,9.3,20.6,20.7-.6,6.2-2.3,9.5c2.1-3.2,4.1-5,7.1-6.8,9.8-5.7,22.5-2.3,28.2,7.6,5.7,9.9,2.3,22.6-7.6,28.3-2.8,1.6-5.3,2.5-8.8,2.7,3.6.3,6.1,1.2,8.9,2.9,9.9,5.7,13.2,18.4,7.5,28.3-5.7,9.9-18.3,13.3-28.2,7.6-3-1.8-5.1-3.7-7.2-7,1.8,3.5,2.4,6.2,2.4,9.7,0,11.4-9.2,20.7-20.6,20.7s-20.7-9.3-20.7-20.7"/>
</svg>